<svg xmlns="http://www.w3.org/2000/svg" viewBox="0 0 731.28 766.86"><defs><style>.cls-1{opacity:0.27;}.cls-2{fill:none;stroke:#474747;stroke-miterlimit:10;}.cls-3{fill:#f9dfd7;}.cls-4{fill:#edccc5;}.cls-5{fill:#474747;}.cls-6{fill:#f7df1e;}.cls-7{fill:#264de4;}.cls-8{fill:#2965f1;}.cls-9{fill:#ebebeb;}.cls-10{fill:#fff;}.cls-11{fill:#e44d26;}.cls-12{fill:#f16529;}</style></defs><title>main-screen-image</title><g id="hand-fill"><path class="cls-2" d="M334.84,400.06" transform="translate(-0.71 -1.64)"/><path class="cls-3" d="M429.15,402.92l158.48-2.86c-2.69,14.79-1.34,83.37,2.69,110.26s-2.69,65.89-5.38,96.82,8.07,43,16.14,60.51c8,17.32,39.34,100.85,39.34,100.85H449.13c2.69-22.86,13.45-43-29.58-84.72S318.7,589.66,351,463.26l.95-2.23-.23-1.78c-2.36-16.45-9.66-32.69-12.82-39-2.67-5.34-3.57-12.44-3.88-16.64l-.08-1.38c-17.93-12.26-50-44.37-51.17-77.45-1.35-39,10.76-56.48,36.3-56.48s51.1,51.1,71.27,61.86,29.59,25.55,35,56.47c.9,5.18,1.77,10.24,2.67,15.2Z" transform="translate(-0.71 -1.64)"/><path class="cls-4" d="M357.7,307.28s-13.45-16.14-17.49-21.52-9.41-10.75-22.85-5.38-18.83,13.45-21.52,16.14-4,10.76-1.34,14.79,9.41,13.45,10.75,14.79a11.48,11.48,0,0,0,12.11,1.35c5.37-2.69,14.79-13.45,28.23-14.79S357.7,307.28,357.7,307.28Z" transform="translate(-0.71 -1.64)"/><path class="cls-3" d="M252.81,449.81c-8.07,5.38-29.58,16.14-33.62,21.52s-9.41,12.1-20.17,14.79-30.92-1.35-30.92-14.79,1.34-25.55,17.48-40.34S252.81,449.81,252.81,449.81Z" transform="translate(-0.71 -1.64)"/></g><g id="hand-stroke"><path class="cls-5" d="M449.13,768.5c.76-7.07,2.23-14.07,2.71-21.14a53.46,53.46,0,0,0-2.61-20.88,70.51,70.51,0,0,0-9.72-18.72l-1.5-2.19-1.64-2.08-3.29-4.16c-1.13-1.36-2.35-2.65-3.52-4s-2.34-2.66-3.57-3.93l-7.52-7.52-7.68-7.4c-5.11-5-10.18-10-15.1-15.12s-9.7-10.46-14.24-16-8.79-11.26-12.75-17.22a167.74,167.74,0,0,1-10.64-18.61c-.77-1.61-1.61-3.19-2.31-4.84l-2.14-4.92c-.7-1.64-1.29-3.33-1.94-5l-1-2.5-.84-2.55a166.26,166.26,0,0,1-5.55-20.7c-.62-3.52-1.34-7-1.74-10.58-.21-1.77-.49-3.54-.65-5.32l-.44-5.33a216.93,216.93,0,0,1,1.18-42.71,308.07,308.07,0,0,1,8.3-41.86,328.7,328.7,0,0,0-7.33,42A216.86,216.86,0,0,0,343,547.7l.51,5.29c.18,1.76.48,3.51.71,5.26.42,3.52,1.14,7,1.78,10.46a163.55,163.55,0,0,0,5.57,20.46l.84,2.52,1,2.47c.65,1.64,1.25,3.31,1.95,4.93l2.13,4.86c.7,1.62,1.54,3.18,2.3,4.78a166.4,166.4,0,0,0,10.6,18.35c3.89,5.91,8.1,11.61,12.56,17.12S392.14,655,397,660.13s9.9,10.17,15,15.13l7.64,7.45,7.48,7.66c1.22,1.3,2.36,2.68,3.55,4s2.37,2.67,3.5,4.06l3.27,4.25,1.63,2.12,1.48,2.24a71,71,0,0,1,9.62,19.13,54.28,54.28,0,0,1,2.21,21.22C451.74,754.52,450.1,761.45,449.13,768.5Z" transform="translate(-0.71 -1.64)"/><path class="cls-5" d="M364.42,518.39a86.11,86.11,0,0,1-7.11-13.72,82,82,0,0,1-4.57-14.82,66.72,66.72,0,0,1-1.43-15.52l.11-3.84c0-.63.05-1.26,0-1.89l-.07-1.9c0-.63,0-1.26-.09-1.9l-.18-1.89-.19-1.89-.28-1.88a107.51,107.51,0,0,0-3.32-14.9c-1.41-4.91-3.13-9.73-5-14.49-.95-2.38-1.94-4.74-3-7.07-.52-1.17-1.08-2.31-1.59-3.54-.25-.6-.45-1.23-.68-1.84s-.38-1.25-.55-1.87a52.84,52.84,0,0,1-1.35-7.65,57,57,0,0,1-.32-7.72,63.36,63.36,0,0,0,2.61,15.09l.62,1.79c.25.59.46,1.18.73,1.75.52,1.12,1.14,2.27,1.72,3.43,1.16,2.31,2.21,4.66,3.25,7a121.88,121.88,0,0,1,8.84,29.7l.28,1.93.18,1.94.18,1.95c.05.65.05,1.3.08,1.95l.06,2c0,.65,0,1.31,0,2l-.15,3.86a69.43,69.43,0,0,0,1.07,15.15,90.43,90.43,0,0,0,4,14.77A97.28,97.28,0,0,0,364.42,518.39Z" transform="translate(-0.71 -1.64)"/><path class="cls-5" d="M361.73,541.25c-.61-2.38-1.11-4.77-1.5-7.2a53,53,0,0,1-.69-7.34,54.78,54.78,0,0,1,.31-7.36c.14-1.22.29-2.44.48-3.65s.44-2.41.71-3.61c0,1.23-.18,2.44-.22,3.67s-.15,2.43-.21,3.65c-.09,2.43-.14,4.85-.07,7.28s.22,4.84.45,7.27S361.53,538.81,361.73,541.25Z" transform="translate(-0.71 -1.64)"/><path class="cls-5" d="M342.9,406.78a39.28,39.28,0,0,1-6-3.19c-1.93-1.23-3.83-2.51-5.66-3.87A135.74,135.74,0,0,1,320.62,391a150.46,150.46,0,0,1-18.56-20.19,107.62,107.62,0,0,1-13.88-23.7,72.88,72.88,0,0,1-4.05-13.19,70,70,0,0,1-1.25-13.75,124.23,124.23,0,0,1,.55-13.77,72,72,0,0,1,2.56-13.6,46.49,46.49,0,0,1,2.43-6.52,35.27,35.27,0,0,1,3.5-6.07,28.84,28.84,0,0,1,10.6-9.13,36.24,36.24,0,0,1,13.5-3.55l1.74-.11,1.74,0a15.2,15.2,0,0,1,1.78.06,13.23,13.23,0,0,1,1.78.16l1.76.32c.58.11,1.14.31,1.71.47a30,30,0,0,1,3.33,1.2,51.37,51.37,0,0,1,11.68,7.58,114.06,114.06,0,0,1,10,9.57c6.26,6.72,12,13.86,17.83,20.86,2.93,3.49,5.87,7,9,10.29a76.59,76.59,0,0,0,9.9,9.19,54.93,54.93,0,0,0,5.74,3.53l1.51.85,1.46.94c1,.63,2,1.21,2.88,1.92a54.17,54.17,0,0,1,10.31,9.29c6.05,7.07,10.06,15.65,12.64,24.45,1.37,4.4,2.36,8.88,3.28,13.37s1.58,9,2.35,13.51c1.53,9,3.12,18,5.29,26.84a149.21,149.21,0,0,0,8.55,25.91,128.13,128.13,0,0,0,13.66,23.66,123.5,123.5,0,0,1-14.14-23.44,150.92,150.92,0,0,1-9-25.89c-2.29-8.87-4-17.87-5.58-26.86-.82-4.49-1.59-9-2.49-13.45a132,132,0,0,0-3.37-13.19c-.63-2.18-1.47-4.29-2.24-6.41L417.69,359c-.43-1-1-2-1.47-3a56.56,56.56,0,0,0-7.44-11.21,52.82,52.82,0,0,0-10-9c-.89-.68-1.87-1.25-2.82-1.87l-1.42-.9-1.48-.83a60,60,0,0,1-5.93-3.62,77.58,77.58,0,0,1-10.18-9.39c-3.14-3.35-6.11-6.84-9.06-10.34-5.89-7-11.63-14.08-17.83-20.72a111.29,111.29,0,0,0-9.76-9.43,49,49,0,0,0-11.19-7.33,26.8,26.8,0,0,0-3.1-1.14c-.53-.14-1.05-.33-1.59-.44l-1.61-.29a11,11,0,0,0-1.62-.16c-.55,0-1.08-.09-1.65-.06l-1.68,0-1.67.11a34.35,34.35,0,0,0-12.84,3.31,27.11,27.11,0,0,0-10,8.54A33.49,33.49,0,0,0,290,287a44.43,44.43,0,0,0-2.37,6.29,72.36,72.36,0,0,0-2.55,13.27,120.66,120.66,0,0,0-.67,13.59,68.25,68.25,0,0,0,1.08,13.49,71.18,71.18,0,0,0,3.84,13,107.28,107.28,0,0,0,13.5,23.59A151.91,151.91,0,0,0,321,390.6c3.32,3.12,6.77,6.1,10.39,8.88,1.8,1.4,3.66,2.72,5.56,4A39.62,39.62,0,0,0,342.9,406.78Z" transform="translate(-0.71 -1.64)"/><path class="cls-5" d="M453.17,699.92c-3-.53-5.93-.84-8.91-1.25a37.59,37.59,0,0,1-8.82-2.13,30.28,30.28,0,0,1-7.84-4.61,44.79,44.79,0,0,1-6.32-6.45c1.14,1,2.14,2.1,3.32,3,.58.48,1.11,1,1.7,1.45l1.77,1.36a35.9,35.9,0,0,0,7.73,4.29,46.08,46.08,0,0,0,8.59,2.3l4.41.87C450.27,699.11,451.74,699.46,453.17,699.92Z" transform="translate(-0.71 -1.64)"/><path class="cls-5" d="M474.68,526.46a82.38,82.38,0,0,0,1.19-12.66,65.57,65.57,0,0,0-1.05-12.53,58.41,58.41,0,0,0-3.53-12,66.3,66.3,0,0,0-6-11.17,40.8,40.8,0,0,1,7.44,10.53,46.89,46.89,0,0,1,4.08,12.33,50.31,50.31,0,0,1,.63,13A46.15,46.15,0,0,1,474.68,526.46Z" transform="translate(-0.71 -1.64)"/><path class="cls-5" d="M516.37,495.53c-2.38-2.22-4.58-4.55-6.95-6.69a31.58,31.58,0,0,0-7.84-5.41,14.93,14.93,0,0,1,4.56,1.76,23,23,0,0,1,3.95,2.91A39.08,39.08,0,0,1,516.37,495.53Z" transform="translate(-0.71 -1.64)"/><path class="cls-5" d="M447.2,458.15a27.33,27.33,0,0,1,6.14-6,42.31,42.31,0,0,1,7.47-4.37,54.32,54.32,0,0,1,8.11-3,48.76,48.76,0,0,1,8.45-1.66c-1.39.36-2.78.68-4.14,1.11s-2.74.81-4.08,1.28a84.81,84.81,0,0,0-7.92,3.16,58.6,58.6,0,0,0-7.46,4.08c-.58.41-1.18.78-1.75,1.21s-1.13.86-1.67,1.32l-1.62,1.39C448.23,457.15,447.72,457.65,447.2,458.15Z" transform="translate(-0.71 -1.64)"/><path class="cls-5" d="M447.79,425.61c-.36,2.59-.65,5.17-.82,7.76s-.25,5.17-.22,7.76.11,5.19.21,7.79.25,5.2.24,7.82c-.21-1.29-.37-2.58-.56-3.88l-.45-3.89c-.28-2.59-.42-5.21-.44-7.83a60.58,60.58,0,0,1,.46-7.85A46.52,46.52,0,0,1,447.79,425.61Z" transform="translate(-0.71 -1.64)"/><path class="cls-5" d="M494.85,480.74c-3.37-2.63-6.69-5.32-10.11-7.88s-6.87-5.05-10.5-7.27a63.79,63.79,0,0,0-11.31-5.78,32.57,32.57,0,0,0-6.1-1.72,21.12,21.12,0,0,0-6.35-.21,19.47,19.47,0,0,1,6.42-.27,32.47,32.47,0,0,1,6.29,1.47,59.14,59.14,0,0,1,11.58,5.66,113.65,113.65,0,0,1,10.44,7.52c1.66,1.35,3.3,2.74,4.91,4.14S493.3,479.26,494.85,480.74Z" transform="translate(-0.71 -1.64)"/><path class="cls-5" d="M640.48,768.5c-12.12-29.24-23-59-34.88-88.29-1.51-3.65-3-7.31-4.65-10.89s-3.45-7.06-5.27-10.57c-3.69-7-7.35-14.16-9.45-21.92A72.06,72.06,0,0,1,584,625a92,92,0,0,1-.38-12c.12-4,.52-8,.89-11.9s.8-7.88,1.22-11.81c1.73-15.74,3.73-31.43,4.57-47.19a197.85,197.85,0,0,0,0-23.61c-.14-2-.32-3.92-.56-5.86L589,506.8c-.48-3.95-.83-7.9-1.15-11.85-1.19-15.81-1.72-31.64-2-47.47-.07-7.91,0-15.83.13-23.75.09-4,.22-7.91.43-11.86a106.13,106.13,0,0,1,1.18-11.81,103.74,103.74,0,0,0-.87,11.82q-.19,5.92-.2,11.86c0,7.91.11,15.82.33,23.72.42,15.81,1.14,31.62,2.51,47.36.36,3.93.77,7.86,1.27,11.76l.81,5.88c.25,2,.44,4,.59,5.95a197.38,197.38,0,0,1,.08,23.83c-.8,15.86-2.69,31.6-4.43,47.31-.44,3.93-.87,7.86-1.26,11.79s-.81,7.86-.93,11.77A76.68,76.68,0,0,0,588,636.35c2,7.56,5.56,14.61,9.23,21.61,1.82,3.51,3.64,7.06,5.22,10.71s3.08,7.31,4.55,11c5.82,14.73,11.33,29.56,16.85,44.39S634.75,753.75,640.48,768.5Z" transform="translate(-0.71 -1.64)"/><path class="cls-5" d="M357.7,307.28c-4.7-5.53-9.39-11.07-14-16.68-1.15-1.41-2.29-2.82-3.4-4.26a31.24,31.24,0,0,0-3.53-4.06,13.73,13.73,0,0,0-4.45-2.86,13.88,13.88,0,0,0-5.19-.86,28.17,28.17,0,0,0-10.35,2.54,51.3,51.3,0,0,0-9.46,5.16,48.75,48.75,0,0,0-8,7.15l-3.58,4a12.39,12.39,0,0,0-1.86,4.83c-.62,3.45-.45,7.21,1.87,10,2,3,4.14,5.95,6.27,8.88,1.07,1.45,2.14,2.93,3.27,4.3a6,6,0,0,0,2,1.49,11.33,11.33,0,0,0,2.46.9,11,11,0,0,0,5.19.05,13.21,13.21,0,0,0,4.71-2.32c2.94-2.09,5.77-4.4,8.81-6.4a45.82,45.82,0,0,1,9.71-5c.86-.29,1.74-.55,2.61-.8s1.78-.43,2.69-.56,1.81-.26,2.71-.35,1.8-.18,2.69-.33a25.55,25.55,0,0,0,5.26-1.27,8.79,8.79,0,0,0,2.38-1.27A2.52,2.52,0,0,0,357.7,307.28Zm0,0a2.56,2.56,0,0,1-1.15,2.33,9.07,9.07,0,0,1-2.37,1.33,25.46,25.46,0,0,1-5.27,1.4c-.9.17-1.8.28-2.7.4s-1.79.27-2.68.4-1.76.41-2.63.61-1.72.54-2.57.85a46,46,0,0,0-9.51,5.08c-3,2-5.77,4.35-8.73,6.51a13.94,13.94,0,0,1-4.95,2.5,11.74,11.74,0,0,1-5.59,0,12.51,12.51,0,0,1-2.65-.95,6.82,6.82,0,0,1-2.32-1.7c-1.19-1.42-2.25-2.88-3.34-4.34q-3.23-4.4-6.32-8.88l-.76-1.13a8.65,8.65,0,0,1-.69-1.27,11,11,0,0,1-.77-2.73,17.69,17.69,0,0,1,.15-5.58,13.41,13.41,0,0,1,2.07-5.23l3.66-4.09a49.31,49.31,0,0,1,8.22-7.25,52.53,52.53,0,0,1,9.64-5.22,28.41,28.41,0,0,1,10.68-2.51,14.81,14.81,0,0,1,5.46,1,14.47,14.47,0,0,1,4.62,3.05,31.91,31.91,0,0,1,3.55,4.18c1.08,1.45,2.21,2.87,3.33,4.3C348.56,296,353.12,301.64,357.7,307.28Z" transform="translate(-0.71 -1.64)"/><path class="cls-5" d="M361.73,377.2c1.92-1.58,3.87-3.13,5.84-4.67s4-3,6-4.42a101.21,101.21,0,0,1,12.9-7.63,67.54,67.54,0,0,1,14.12-5.05,35.3,35.3,0,0,1,3.69-.7l1.86-.26.93-.13.93,0c1.26,0,2.5-.16,3.75-.13l3.74.18a56.4,56.4,0,0,0-14.72,1.83,72.47,72.47,0,0,0-13.87,5.21,112.89,112.89,0,0,0-12.9,7.37C369.86,371.44,365.83,374.37,361.73,377.2Z" transform="translate(-0.71 -1.64)"/><path class="cls-5" d="M367.11,385.27a95.5,95.5,0,0,1,10.22-6.81c3.53-2.09,7.17-4,10.85-5.79a119.71,119.71,0,0,1,11.35-4.74,48.38,48.38,0,0,1,12-2.83,44.77,44.77,0,0,0-5.93,1.5c-1,.31-1.94.6-2.89,1s-1.92.68-2.86,1.08c-3.79,1.49-7.53,3.12-11.19,4.92s-7.31,3.62-10.9,5.55c-1.8,1-3.59,2-5.35,3S368.85,384.19,367.11,385.27Z" transform="translate(-0.71 -1.64)"/><path class="cls-5" d="M369.8,389.3a43.19,43.19,0,0,0,6.1-.82,58.19,58.19,0,0,0,6-1.5,63.76,63.76,0,0,0,11.32-4.63,53.65,53.65,0,0,0,10.16-6.77,43.33,43.33,0,0,0,8.15-9.14c-.51.89-1,1.78-1.58,2.66s-1.21,1.68-1.81,2.52l-.47.62-.52.58L406.05,374a25.38,25.38,0,0,1-2.21,2.19,49.65,49.65,0,0,1-10.21,7.08,58.12,58.12,0,0,1-11.57,4.49A42.83,42.83,0,0,1,369.8,389.3Z" transform="translate(-0.71 -1.64)"/><path class="cls-5" d="M219.19,471.33A41.91,41.91,0,0,1,210,481.6a31,31,0,0,1-12.7,5.66,32.35,32.35,0,0,1-7,.48,38.85,38.85,0,0,1-7-.87,30.43,30.43,0,0,1-6.7-2.27,20.1,20.1,0,0,1-5.87-4.15,15.2,15.2,0,0,1-2.15-3,13.89,13.89,0,0,1-1.24-3.5,17.93,17.93,0,0,1-.23-3.61c0-1.15,0-2.31.08-3.46a64.71,64.71,0,0,1,.66-6.93c.15-1.16.42-2.3.65-3.44s.56-2.27,1-3.37a40.92,40.92,0,0,1,6.5-12.26,64.58,64.58,0,0,1,9.59-9.89,72.82,72.82,0,0,0-8.79,10.46A42.48,42.48,0,0,0,171,453.6,51.64,51.64,0,0,0,169.12,467c0,1.13-.06,2.26-.05,3.4a15.24,15.24,0,0,0,.22,3.22,11.45,11.45,0,0,0,1.07,2.95,12.87,12.87,0,0,0,1.86,2.56c2.95,3.14,7.23,4.91,11.53,5.95a36.55,36.55,0,0,0,13.3.7,31.08,31.08,0,0,0,12.39-4.93,33.69,33.69,0,0,0,5.22-4.34C216.25,474.84,217.73,473.09,219.19,471.33Z" transform="translate(-0.71 -1.64)"/></g><g id="js"><rect class="cls-6" x="382.57" y="154.66" width="290.45" height="290.45" transform="translate(-37.52 521.22) rotate(-51.15)"/><path d="M515.41,394.79c-1.43,11.11.09,21.36,10.57,29.8,8.81,7.09,18,7.22,22.88,1.14,5.87-7.29,2.17-14.53-4.11-26.58l-3.48-6.56c-10.07-18.88-13.67-35.28.27-52.58,12.84-15.95,34.76-18.3,53.74-3,13.52,10.88,19.44,23.41,16.53,41.36l-25.11-2.7c1.61-9.47-.24-15.21-6.35-20.12s-13.35-4.25-17.51.91c-5.13,6.38-3.26,12.14,2.68,23.44l3.48,6.55c11.82,22.29,15.66,38.4,1.36,56.15-15.41,19.14-38.89,17.52-59.08,1.26-19.74-15.9-24.92-35.58-21.23-52.93Zm-76.58-58.63c-1.43,8.62-2.42,16.07,4.88,21.95,7,5.63,13.59,6.44,22.15-4.18l58.21-72.28,21.25,17.12-58.44,72.56c-17.72,22-38.7,21.64-57.53,6.47-17-13.71-19.79-30.45-16.26-45.1Z" transform="translate(-0.71 -1.64)"/></g><g id="css"><g id="layer1"><g id="g3013"><polygon id="polygon2989" class="cls-7" points="480.02 0.26 453.09 295.78 333.16 328.55 213.62 295.61 187.24 0 480.02 0.26"/><polygon id="polygon2991" class="cls-8" points="430.27 276.94 453.29 24.41 333.61 24.3 333.36 303.42 430.27 276.94"/><polygon id="polygon2993" class="cls-9" points="248.2 133.85 251.45 170.11 333.48 170.18 333.51 133.93 248.2 133.85"/><polygon id="polygon2995" class="cls-9" points="333.57 60.55 333.45 60.55 241.66 60.47 244.96 96.73 333.54 96.81 333.57 60.55"/><polygon id="polygon2997" class="cls-9" points="333.39 265.8 333.43 228.08 333.26 228.12 292.45 217.18 289.87 188.27 270.03 188.25 253.07 188.24 258.16 245.16 333.22 265.84 333.39 265.8"/><polygon id="polygon3005" class="cls-10" points="378.49 170.22 374.19 217.23 333.3 228.11 333.26 265.83 408.43 245.3 408.98 239.17 417.68 143.74 418.58 134 425.27 60.63 333.45 60.55 333.42 96.81 385.07 96.85 381.7 133.97 333.38 133.93 333.35 170.18 378.49 170.22"/></g></g></g><g id="html"><path class="cls-11" d="M254.56,507.2.71,355.85,175,116.24l222,194.85-45,117.47" transform="translate(-0.71 -1.64)"/><path class="cls-12" d="M332,413.63,107.41,250.26l71.26-97.95L368.11,318.72" transform="translate(-0.71 -1.64)"/><path class="cls-9" d="M81.74,346.72l54.78-75.29,29.17,21.22-30.85,42.41,31.89,19,28.83-39.63,29.11,21.18-48.82,67.1M191.46,412l21.91-30.12,24.86,14.86,33.15-27.2,30.45,22.16-61.48,49.4" transform="translate(-0.71 -1.64)"/><path class="cls-10" d="M191.1,196.4l-54.68,75.16,29.17,21.23,52.66-72.39m27.91,24.45-50.69,69.67,29.17,21.23,26.91-37,35.36,31.08-15.63,39.84,30.33,22.07,28.11-73.48" transform="translate(-0.71 -1.64)"/></g><g id="finger-fill"><path class="cls-3" d="M429.15,402.92,351.92,461l-.23-1.78c-2.36-16.45-9.66-32.69-12.82-39-2.67-5.34-3.57-12.44-3.88-16.64l-.08-1.38c-17.93-12.26-50-44.37-51.17-77.45-1.35-39,10.76-56.48,36.3-56.48s51.1,51.1,71.27,61.86,29.59,25.55,35,56.47c.9,5.18,1.77,10.24,2.67,15.2Z" transform="translate(-0.71 -1.64)"/><path class="cls-4" d="M357.7,307.28s-13.45-16.14-17.49-21.52-9.41-10.75-22.85-5.38-18.83,13.45-21.52,16.14-4,10.76-1.34,14.79,9.41,13.45,10.75,14.79a11.48,11.48,0,0,0,12.11,1.35c5.37-2.69,14.79-13.45,28.23-14.79S357.7,307.28,357.7,307.28Z" transform="translate(-0.71 -1.64)"/></g><g id="finger-stroke"><path class="cls-5" d="M364.42,518.39a86.11,86.11,0,0,1-7.11-13.72,82,82,0,0,1-4.57-14.82,66.72,66.72,0,0,1-1.43-15.52l.11-3.84c0-.63.05-1.26,0-1.89l-.07-1.9c0-.63,0-1.26-.09-1.9l-.18-1.89-.19-1.89-.28-1.88a107.51,107.51,0,0,0-3.32-14.9c-1.41-4.91-3.13-9.73-5-14.49-.95-2.38-1.94-4.74-3-7.07-.52-1.17-1.08-2.31-1.59-3.54-.25-.6-.45-1.23-.68-1.84s-.38-1.25-.55-1.87a52.84,52.84,0,0,1-1.35-7.65,57,57,0,0,1-.32-7.72,63.36,63.36,0,0,0,2.61,15.09l.62,1.79c.25.59.46,1.18.73,1.75.52,1.12,1.14,2.27,1.72,3.43,1.16,2.31,2.21,4.66,3.25,7a121.88,121.88,0,0,1,8.84,29.7l.28,1.93.18,1.94.18,1.95c.05.65.05,1.3.08,1.95l.06,2c0,.65,0,1.31,0,2l-.15,3.86a69.43,69.43,0,0,0,1.07,15.15,90.43,90.43,0,0,0,4,14.77A97.28,97.28,0,0,0,364.42,518.39Z" transform="translate(-0.71 -1.64)"/><path class="cls-5" d="M342.9,406.78a39.28,39.28,0,0,1-6-3.19c-1.93-1.23-3.83-2.51-5.66-3.87A135.74,135.74,0,0,1,320.62,391a150.46,150.46,0,0,1-18.56-20.19,107.62,107.62,0,0,1-13.88-23.7,72.88,72.88,0,0,1-4.05-13.19,70,70,0,0,1-1.25-13.75,124.23,124.23,0,0,1,.55-13.77,72,72,0,0,1,2.56-13.6,46.49,46.49,0,0,1,2.43-6.52,35.27,35.27,0,0,1,3.5-6.07,28.84,28.84,0,0,1,10.6-9.13,36.24,36.24,0,0,1,13.5-3.55l1.74-.11,1.74,0a15.2,15.2,0,0,1,1.78.06,13.23,13.23,0,0,1,1.78.16l1.76.32c.58.11,1.14.31,1.71.47a30,30,0,0,1,3.33,1.2,51.37,51.37,0,0,1,11.68,7.58,114.06,114.06,0,0,1,10,9.57c6.26,6.72,12,13.86,17.83,20.86,2.93,3.49,5.87,7,9,10.29a76.59,76.59,0,0,0,9.9,9.19,54.93,54.93,0,0,0,5.74,3.53l1.51.85,1.46.94c1,.63,2,1.21,2.88,1.92a54.17,54.17,0,0,1,10.31,9.29c6.05,7.07,10.06,15.65,12.64,24.45,1.37,4.4,2.36,8.88,3.28,13.37s1.58,9,2.35,13.51c1.53,9,3.12,18,5.29,26.84a149.21,149.21,0,0,0,8.55,25.91,128.13,128.13,0,0,0,13.66,23.66,123.5,123.5,0,0,1-14.14-23.44,150.92,150.92,0,0,1-9-25.89c-2.29-8.87-4-17.87-5.58-26.86-.82-4.49-1.59-9-2.49-13.45a132,132,0,0,0-3.37-13.19c-.63-2.18-1.47-4.29-2.24-6.41L417.69,359c-.43-1-1-2-1.47-3a56.56,56.56,0,0,0-7.44-11.21,52.82,52.82,0,0,0-10-9c-.89-.68-1.87-1.25-2.82-1.87l-1.42-.9-1.48-.83a60,60,0,0,1-5.93-3.62,77.58,77.58,0,0,1-10.18-9.39c-3.14-3.35-6.11-6.84-9.06-10.34-5.89-7-11.63-14.08-17.83-20.72a111.29,111.29,0,0,0-9.76-9.43,49,49,0,0,0-11.19-7.33,26.8,26.8,0,0,0-3.1-1.14c-.53-.14-1.05-.33-1.59-.44l-1.61-.29a11,11,0,0,0-1.62-.16c-.55,0-1.08-.09-1.65-.06l-1.68,0-1.67.11a34.35,34.35,0,0,0-12.84,3.31,27.11,27.11,0,0,0-10,8.54A33.49,33.49,0,0,0,290,287a44.43,44.43,0,0,0-2.37,6.29,72.36,72.36,0,0,0-2.55,13.27,120.66,120.66,0,0,0-.67,13.59,68.25,68.25,0,0,0,1.08,13.49,71.18,71.18,0,0,0,3.84,13,107.28,107.28,0,0,0,13.5,23.59A151.91,151.91,0,0,0,321,390.6c3.32,3.12,6.77,6.1,10.39,8.88,1.8,1.4,3.66,2.72,5.56,4A39.62,39.62,0,0,0,342.9,406.78Z" transform="translate(-0.71 -1.64)"/><path class="cls-5" d="M357.7,307.28c-4.7-5.53-9.39-11.07-14-16.68-1.15-1.41-2.29-2.82-3.4-4.26a31.24,31.24,0,0,0-3.53-4.06,13.73,13.73,0,0,0-4.45-2.86,13.88,13.88,0,0,0-5.19-.86,28.17,28.17,0,0,0-10.35,2.54,51.3,51.3,0,0,0-9.46,5.16,48.75,48.75,0,0,0-8,7.15l-3.58,4a12.39,12.39,0,0,0-1.86,4.83c-.62,3.45-.45,7.21,1.87,10,2,3,4.14,5.95,6.27,8.88,1.07,1.45,2.14,2.93,3.27,4.3a6,6,0,0,0,2,1.49,11.33,11.33,0,0,0,2.46.9,11,11,0,0,0,5.19.05,13.21,13.21,0,0,0,4.71-2.32c2.94-2.09,5.77-4.4,8.81-6.4a45.82,45.82,0,0,1,9.71-5c.86-.29,1.74-.55,2.61-.8s1.78-.43,2.69-.56,1.81-.26,2.71-.35,1.8-.18,2.69-.33a25.55,25.55,0,0,0,5.26-1.27,8.79,8.79,0,0,0,2.38-1.27A2.52,2.52,0,0,0,357.7,307.28Zm0,0a2.56,2.56,0,0,1-1.15,2.33,9.07,9.07,0,0,1-2.37,1.33,25.46,25.46,0,0,1-5.27,1.4c-.9.17-1.8.28-2.7.4s-1.79.27-2.68.4-1.76.41-2.63.61-1.72.54-2.57.85a46,46,0,0,0-9.51,5.08c-3,2-5.77,4.35-8.73,6.51a13.94,13.94,0,0,1-4.95,2.5,11.74,11.74,0,0,1-5.59,0,12.51,12.51,0,0,1-2.65-.95,6.82,6.82,0,0,1-2.32-1.7c-1.19-1.42-2.25-2.88-3.34-4.34q-3.23-4.4-6.32-8.88l-.76-1.13a8.65,8.65,0,0,1-.69-1.27,11,11,0,0,1-.77-2.73,17.69,17.69,0,0,1,.15-5.58,13.41,13.41,0,0,1,2.07-5.23l3.66-4.09a49.31,49.31,0,0,1,8.22-7.25,52.53,52.53,0,0,1,9.64-5.22,28.41,28.41,0,0,1,10.68-2.51,14.81,14.81,0,0,1,5.46,1,14.47,14.47,0,0,1,4.62,3.05,31.91,31.91,0,0,1,3.55,4.18c1.08,1.45,2.21,2.87,3.33,4.3C348.56,296,353.12,301.64,357.7,307.28Z" transform="translate(-0.71 -1.64)"/><path class="cls-5" d="M361.73,377.2c1.92-1.58,3.87-3.13,5.84-4.67s4-3,6-4.42a101.21,101.21,0,0,1,12.9-7.63,67.54,67.54,0,0,1,14.12-5.05,35.3,35.3,0,0,1,3.69-.7l1.86-.26.93-.13.93,0c1.26,0,2.5-.16,3.75-.13l3.74.18a56.4,56.4,0,0,0-14.72,1.83,72.47,72.47,0,0,0-13.87,5.21,112.89,112.89,0,0,0-12.9,7.37C369.86,371.44,365.83,374.37,361.73,377.2Z" transform="translate(-0.71 -1.64)"/><path class="cls-5" d="M367.11,385.27a95.5,95.5,0,0,1,10.22-6.81c3.53-2.09,7.17-4,10.85-5.79a119.71,119.71,0,0,1,11.35-4.74,48.38,48.38,0,0,1,12-2.83,44.77,44.77,0,0,0-5.93,1.5c-1,.31-1.94.6-2.89,1s-1.92.68-2.86,1.08c-3.79,1.49-7.53,3.12-11.19,4.92s-7.31,3.62-10.9,5.55c-1.8,1-3.59,2-5.35,3S368.85,384.19,367.11,385.27Z" transform="translate(-0.71 -1.64)"/><path class="cls-5" d="M369.8,389.3a43.19,43.19,0,0,0,6.1-.82,58.19,58.19,0,0,0,6-1.5,63.76,63.76,0,0,0,11.32-4.63,53.65,53.65,0,0,0,10.16-6.77,43.33,43.33,0,0,0,8.15-9.14c-.51.89-1,1.78-1.58,2.66s-1.21,1.68-1.81,2.52l-.47.62-.52.58L406.05,374a25.38,25.38,0,0,1-2.21,2.19,49.65,49.65,0,0,1-10.21,7.08,58.12,58.12,0,0,1-11.57,4.49A42.83,42.83,0,0,1,369.8,389.3Z" transform="translate(-0.71 -1.64)"/></g></svg>