<svg xmlns="http://www.w3.org/2000/svg" viewBox="0 0 1776 1479"><defs><style>.cls-1{fill:#e44d26;}.cls-2{fill:#f16529;}.cls-3{fill:#ebebeb;}.cls-10,.cls-4{fill:#fff;}.cls-5{fill:#264de4;}.cls-6{fill:#2965f1;}.cls-7{fill:#f7df1e;}.cls-8{fill:#f1dd3f;}.cls-9{fill:#323330;}.cls-10{opacity:0.3;isolation:isolate;}</style></defs><title>frontend-new</title><g id="htnl"><path class="cls-1" d="M44,738.26,0,244.17H484L439.93,738,241.57,793"/><path class="cls-2" d="M242,750.93V284.73H439.8L402.05,706.25"/><path class="cls-3" d="M89.91,345.15H242v60.56H156.34l5.6,62h80v60.43H106.45m2.67,30.41h60.82L174.21,607,242,625.14v63.23L117.65,653.69"/><path class="cls-4" d="M393.51,345.15H241.71v60.56h146.2m-5.47,62H241.71V528.3h74.7L309.34,607l-67.63,18.14v63l124-34.42"/></g><g id="css"><polygon id="polygon2989" class="cls-5" points="1776 244.12 1731.91 738.06 1533.71 793.01 1336.06 738.14 1292.02 244.12 1776 244.12"/><polygon id="polygon2991" class="cls-6" points="1694.16 706.61 1731.84 284.51 1534.01 284.51 1534.01 751.01 1694.16 706.61"/><polygon id="polygon2993" class="cls-3" points="1392.99 467.74 1398.42 528.33 1534.01 528.33 1534.01 467.74 1392.99 467.74"/><polygon id="polygon2995" class="cls-3" points="1534.01 345.1 1533.8 345.1 1382.08 345.1 1387.59 405.69 1534.01 405.69 1534.01 345.1"/><polygon id="polygon2997" class="cls-3" points="1534.01 688.13 1534.01 625.1 1533.74 625.16 1466.26 606.95 1461.95 558.62 1429.16 558.62 1401.13 558.62 1409.62 653.76 1533.73 688.21 1534.01 688.13"/><polygon id="polygon3005" class="cls-4" points="1608.41 528.33 1601.38 606.91 1533.8 625.14 1533.8 688.18 1658.01 653.76 1658.92 643.52 1673.16 484.01 1674.64 467.74 1685.58 345.1 1533.8 345.1 1533.8 405.69 1619.18 405.69 1613.66 467.74 1533.8 467.74 1533.8 528.33 1608.41 528.33"/></g><g id="js"><rect class="cls-7" x="612.33" y="0.33" width="548.35" height="548.35"/><path d="M980.68,428.73c11,18,25.41,31.29,50.83,31.29,21.35,0,35-10.67,35-25.42,0-17.67-14-23.93-37.52-34.2l-12.88-5.53c-37.18-15.84-61.88-35.69-61.88-77.64,0-38.65,29.44-68.07,75.46-68.07,32.76,0,56.31,11.41,73.29,41.26l-40.13,25.76c-8.83-15.84-18.36-22.08-33.16-22.08-15.09,0-24.66,9.58-24.66,22.08,0,15.46,9.58,21.72,31.68,31.3l12.89,5.51c43.78,18.78,68.5,37.92,68.5,80.95,0,46.39-36.45,71.81-85.39,71.81-47.85,0-78.77-22.81-93.9-52.7Zm-182,4.46c8.1,14.36,15.46,26.51,33.16,26.51,16.93,0,27.61-6.63,27.61-32.38V252.11H911V428c0,53.36-31.28,77.64-76.94,77.64-41.26,0-65.15-21.35-77.3-47.06Z"/></g><g id="frontend"><path class="cls-8" d="M570.69,1389.28,500.51,601.91h772l-70.18,787.37-316.67,89Z"/><polygon class="cls-9" points="936.82 761.1 911.83 856.95 1022.58 856.95 1014.02 956.23 885.64 956.23 860.14 1053.79 1005.46 1053.79 993.48 1178.75 885.64 1207.85 824.02 1191.24 799.55 1285.04 885.64 1308.84 887.36 1308.84 1085.91 1254.06 1128.7 761.1 936.82 761.1"/><polygon class="cls-9" points="777.81 1178.75 777.81 1178.75 767.02 1053.79 810.67 1053.79 836.18 956.23 758.98 956.23 750.42 856.95 862.19 856.95 887.36 761.1 644.3 761.1 687.09 1254.06 753.33 1272.38 777.81 1178.75"/><path class="cls-10" d="M887.36,1409.83l255-70.18,59.91-674.41H887.36Z"/></g></svg>