<svg xmlns="http://www.w3.org/2000/svg" viewBox="0 0 1224 1389"><defs><style>.cls-1{fill:#d6d6d6;}.cls-2{fill:#323330;}.cls-3{fill:#fff;opacity:0.3;isolation:isolate;}</style></defs><title>frontend-new</title><g id="frontend"><path class="cls-1" d="M111.4,1247.93.17,0H1223.69L1112.46,1247.93,610.58,1389Z"/><polygon class="cls-2" points="691.69 253.3 652.08 405.22 827.61 405.22 814.04 562.57 610.58 562.57 570.15 717.2 800.48 717.2 781.49 915.24 610.58 961.36 512.91 935.05 474.12 1083.71 610.58 1121.42 613.29 1121.42 927.98 1034.61 995.81 253.3 691.69 253.3"/><polygon class="cls-2" points="439.66 915.24 439.66 915.24 422.57 717.2 491.75 717.2 532.17 562.57 409.82 562.57 396.26 405.22 573.41 405.22 613.29 253.3 228.06 253.3 295.88 1034.61 400.87 1063.64 439.66 915.24"/><path class="cls-3" d="M613.29,1281.48l404.22-111.22,95-1068.88H613.29Z"/></g></svg>